<?xml version="1.0" encoding="utf-8"?>
<!DOCTYPE svg PUBLIC "-//W3C//DTD SVG 1.1//EN" "http://www.w3.org/Graphics/SVG/1.1/DTD/svg11.dtd">
<svg width="255px" height="295px" version="1.1" id="Layer_1" xmlns="http://www.w3.org/2000/svg" xmlns:xlink="http://www.w3.org/1999/xlink" x="0px" y="0px"
	 viewBox="0 0 373.3 424" style="enable-background:new 0 0 373.3 424;" xml:space="preserve">
<g>
	<path d="M343.2,350.7c8.2,0.7,16-0.6,23.4-3.9c-11.5-6-21.5-15-30-27c10.7,2.2,12.7-7.1,25.1,1.6c-8.1-18.9-25.4-33-34.3-38.1
		c-5.2-3-8.6-8.4-9.2-14.4c-2.3-26.4,7.6-86.5,4.2-116.6c-4.1-37.5-10.7-67.1-25.7-93c-15-25.8-38.6-47.8-89.1-29.9
		c-35.2-24.5-54-21.9-73.3-13.5c-21,9.2-42.5,25.3-59.9,54.8C57.1,100.2,43.9,143.1,44.7,185c0.5,23.6,5.4,46.9,2,77.7
		c-7.2,20-19.1,34.5-35.6,43.2c8.6,2.2,17.2,2.4,25.7,0.5c-4.5,13.5-4.3,33.5-19,44.6c21-15.8,33.4-8.5,40.8-19
		c-6.2,10.3-8.6,24.2-18.6,30.8c16-10.6,23.3-6.1,25.6-11.8c-8.9,27.6-12,52.5-28.7,67.8c17-6.4,42.2-53.3,57.4-82.2
		c3-2.5,6.6-5.9,10.9-10.5c-0.8,13.7-3.9,24.1-3.9,24.1c9.6-0.4,17.6-6.8,23-12.7c-2.6,11.2-6.5,21.9-12.2,20.3c0,0,15.1,5.8,23-1.6
		c5.2,22.1,14.7,44.2,14.7,44.2c-0.5-11,6.7-22.8,12.9-30.9c-0.3,9.5-2.1,17.8-7.1,17.5c0,0,14.3,1.9,20.9-5.4
		c5.2,14.5,12.6,29,12.6,29c5.8-12.6,11.7-25.9,16.4-36.5c5.5,14.5,26.2,6.5,26.2,6.5c-4.8,1.4-8.3-6-10.9-15.1
		c9.4,12.5,24.5,19.3,24.5,19.3c1.8-9.2,2.8-18,3.3-25.8c7,2.1,15.4-0.6,17.3-1.2c0,0,0,0,0,0c-5.2,1-9-8.7-11.5-19.1
		c8.3,9.2,22.4,16.8,22.4,16.8c0,0,0,0,0,0c8.1,35.2,18.2,60.7,25.9,64.4c-2.1-12,4.9-44.6,2.9-56.6c16,20,11.9,43.2,33.8,45.9
		c-20.1-22.7,3.4-13.5-3.1-34.8c8.9,6,17.8,1.3,26.6-14C354,363.9,347.7,359.7,343.2,350.7z M125.1,84.5
		C125.1,84.5,125.1,84.5,125.1,84.5C125.1,84.5,125.1,84.5,125.1,84.5c0-0.5,16.4,9.8,16.3,9.4c2.9-3.1-0.2-20,14.1-14.9
		c19.4,6.8,84.9,17.3,93.7,16.4l0,0c3.2,9.8,8.3,20.8,14.3,30.1c0,0,0,0,0,0.1c-6.2-2.4-48.3-17.7-65.9,5.8c0,0,0,0,0,0
		c0.2,0.2,8.2,6,25.1-0.8c16.6-6.8,30.7-7.9,40.8-4.9c0.1,3.3,0.1,6.7,0.2,10.2c-17.4-2.1-36.6,0.1-59.1,5.4
		c-6.8,1.6-14.7,3.2-21.6,2.9c-4.2-0.2-8.1-1.2-11.9-2.2c-22-5.5-42.2-8.1-65.8-4.7C116.9,120.3,125.8,95.7,125.1,84.5z
		 M225.9,260.5c-20.8,21.2-46,32.1-70.3,18.6c-7.5-4.2-14-9.8-19.8-16.6c7.1-10,15.5-20.4,28.5-26c5.9-2.6,30.7-2.3,36.5,0.3
		C213,242.1,218.3,251.1,225.9,260.5L225.9,260.5z M235.3,249.9c5.1-40.8-13.2-43.4-13.2-43.4c-5.8-0.8-14.2-3.3-37.7,3.7
		c0,0-64.2-21.2-62.5,35.9c-17.3-26.2-21.8-58.1-24.9-84.4c0.3-3.1,0.7-6.3,1.1-9.6c1.6,0.6,2.8,1.6,2.9,2.9
		c0.7,27.1,7.5,40.2,33.2,39.9c31.7-0.4,40.4-25.6,42.3-35.3c1-5.2,3.7-5.7,6.7-5.7c5.3-0.1,5.8,3.8,6.7,6.2
		c10.5,27.7,16.9,34,39.7,36.3c28.6,2.9,31.1-14.2,33.9-28.6c-0.2,11.2-0.4,22.6-0.6,34.2C256.1,219,246.6,235.9,235.3,249.9z"/>
	<path d="M154.1,130.9c17.2,5.9,24.9-0.4,25.1-0.6c0,0,0,0,0,0c-19.2-23-61.8-4.2-66.4-2c0,0,0,0,0,0
		C122.7,124.7,136.9,125,154.1,130.9z"/>
</g>
</svg>
